<svg width="82" height="82" viewBox="0 0 82 82" fill="none" xmlns="http://www.w3.org/2000/svg">
<path d="M66.625 10.25H15.375C14.0158 10.25 12.7122 10.79 11.7511 11.7511C10.79 12.7122 10.25 14.0158 10.25 15.375V66.625C10.25 67.9842 10.79 69.2878 11.7511 70.2489C12.7122 71.21 14.0158 71.75 15.375 71.75H66.625C67.9842 71.75 69.2878 71.21 70.2489 70.2489C71.21 69.2878 71.75 67.9842 71.75 66.625V15.375C71.75 14.0158 71.21 12.7122 70.2489 11.7511C69.2878 10.79 67.9842 10.25 66.625 10.25ZM56.375 35.875V66.625H43.5625V35.875H56.375ZM38.4375 66.625H25.625V35.875H38.4375V66.625ZM66.625 66.625H61.5V33.3125C61.5 32.6329 61.23 31.9811 60.7495 31.5005C60.2689 31.02 59.6171 30.75 58.9375 30.75H23.0625C22.3829 30.75 21.7311 31.02 21.2505 31.5005C20.77 31.9811 20.5 32.6329 20.5 33.3125V66.625H15.375V15.375H66.625V66.625ZM48.6875 23.0625C48.6875 23.7421 48.4175 24.3939 47.937 24.8745C47.4564 25.355 46.8046 25.625 46.125 25.625H35.875C35.1954 25.625 34.5436 25.355 34.063 24.8745C33.5825 24.3939 33.3125 23.7421 33.3125 23.0625C33.3125 22.3829 33.5825 21.7311 34.063 21.2505C34.5436 20.77 35.1954 20.5 35.875 20.5H46.125C46.8046 20.5 47.4564 20.77 47.937 21.2505C48.4175 21.7311 48.6875 22.3829 48.6875 23.0625Z" fill="white"/>
</svg>
