<svg xmlns="http://www.w3.org/2000/svg" width="36" height="28" viewBox="0 0 36 28" fill="none">
<path d="M26.79 24.7159C26.79 24.7159 27.3086 25.466 28.96 26.5186C29.0836 26.5964 29.2132 26.6768 29.3498 26.758C29.8683 27.0682 30.4776 27.3984 31.1974 27.7406L31.3703 23.3332C31.3703 23.3332 33.6172 23.506 35.6049 22.6418C35.3758 22.5277 34.3889 21.9963 32.9699 20.8961C32.8429 20.7985 32.7107 20.6948 32.5776 20.5868C31.9502 20.0821 31.251 19.4745 30.5035 18.7529C29.3826 20.6542 26.79 24.7159 26.79 24.7159Z" fill="url(#paint0_linear_350_6094)"/>
<path d="M8.81481 24.4571C8.81481 24.4571 8.2963 25.2072 6.64481 26.2598C6.52123 26.3376 6.3916 26.418 6.25506 26.4992C5.73654 26.8095 5.13161 27.1396 4.40741 27.4818L4.23457 23.0744C4.23457 23.0744 1.98765 23.2472 0 22.383C0.229012 22.269 1.21593 21.7375 2.63494 20.6374C2.76198 20.5397 2.8942 20.436 3.02728 20.328C3.65469 19.8233 4.35383 19.2157 5.10136 18.4941C6.22222 20.3954 8.81481 24.4571 8.81481 24.4571Z" fill="url(#paint1_linear_350_6094)"/>
<path fill-rule="evenodd" clip-rule="evenodd" d="M18.0617 28C25.7937 28 32.0617 21.732 32.0617 14C32.0617 6.26801 25.7937 0 18.0617 0C10.3297 0 4.06171 6.26801 4.06171 14C4.06171 21.732 10.3297 28 18.0617 28ZM18.0615 24.6294C23.932 24.6294 28.6911 19.8703 28.6911 13.9997C28.6911 8.12916 23.932 3.37012 18.0615 3.37012C12.1909 3.37012 7.43182 8.12916 7.43182 13.9997C7.43182 19.8703 12.1909 24.6294 18.0615 24.6294Z" fill="#E36302"/>
<mask id="mask0_350_6094" style="mask-type:alpha" maskUnits="userSpaceOnUse" x="4" y="0" width="29" height="28">
<path fill-rule="evenodd" clip-rule="evenodd" d="M18.0617 28C25.7937 28 32.0617 21.732 32.0617 14C32.0617 6.26801 25.7937 0 18.0617 0C10.3297 0 4.06171 6.26801 4.06171 14C4.06171 21.732 10.3297 28 18.0617 28ZM18.0615 24.6294C23.932 24.6294 28.6911 19.8703 28.6911 13.9997C28.6911 8.12916 23.932 3.37012 18.0615 3.37012C12.1909 3.37012 7.43182 8.12916 7.43182 13.9997C7.43182 19.8703 12.1909 24.6294 18.0615 24.6294Z" fill="#6C7E92"/>
</mask>
<g mask="url(#mask0_350_6094)">
<g filter="url(#filter0_f_350_6094)">
<ellipse cx="12.6469" cy="3.97164" rx="4.96882" ry="9.36725" transform="rotate(42.5525 12.6469 3.97164)" fill="#FBEB93"/>
</g>
<g filter="url(#filter1_f_350_6094)">
<ellipse cx="26.4527" cy="3.85865" rx="3.19753" ry="8.99616" transform="rotate(150 26.4527 3.85865)" fill="#F9C94D"/>
</g>
<g filter="url(#filter2_f_350_6094)">
<ellipse cx="25.8565" cy="23.5231" rx="3.19753" ry="6.48148" transform="rotate(-135 25.8565 23.5231)" fill="#FEDB78"/>
</g>
<g filter="url(#filter3_f_350_6094)">
<ellipse cx="9.60954" cy="22.3133" rx="3.19753" ry="6.48148" transform="rotate(-45 9.60954 22.3133)" fill="#FBE515"/>
</g>
</g>
<circle cx="18.0616" cy="13.9997" r="10.6296" fill="url(#paint2_linear_350_6094)"/>
<path fill-rule="evenodd" clip-rule="evenodd" d="M18.0617 25.4076C24.3618 25.4076 29.4691 20.3003 29.4691 14.0002C29.4691 7.70004 24.3618 2.59277 18.0617 2.59277C11.7616 2.59277 6.6543 7.70004 6.6543 14.0002C6.6543 20.3003 11.7616 25.4076 18.0617 25.4076ZM18.0616 24.6294C23.9322 24.6294 28.6913 19.8703 28.6913 13.9997C28.6913 8.12916 23.9322 3.37012 18.0616 3.37012C12.1911 3.37012 7.43201 8.12916 7.43201 13.9997C7.43201 19.8703 12.1911 24.6294 18.0616 24.6294Z" fill="url(#paint3_linear_350_6094)"/>
<path d="M20.7398 19.0722C20.5945 19.0721 20.4514 19.0362 20.3233 18.9677L18.1386 17.82C18.1095 17.8047 18.0772 17.7967 18.0444 17.7967C18.0116 17.7967 17.9792 17.8047 17.9502 17.82L15.7655 18.9677C15.6373 19.0362 15.4943 19.0721 15.349 19.0722C15.2187 19.0718 15.09 19.043 14.972 18.9879C14.854 18.9327 14.7494 18.8525 14.6655 18.7528C14.5816 18.6531 14.5204 18.5364 14.4862 18.4106C14.452 18.2849 14.4456 18.1533 14.4675 18.0248L14.8849 15.593C14.8905 15.5605 14.888 15.5271 14.8778 15.4958C14.8676 15.4645 14.8498 15.4361 14.8261 15.4132L13.0597 13.6909C12.9404 13.5743 12.856 13.4267 12.8161 13.2647C12.7761 13.1027 12.7823 12.9328 12.8337 12.7741C12.8852 12.6155 12.98 12.4743 13.1074 12.3666C13.2349 12.2589 13.3898 12.189 13.5549 12.1647L15.9971 11.8104C16.0297 11.8055 16.0606 11.7928 16.0872 11.7734C16.1139 11.754 16.1354 11.7284 16.1501 11.6989L17.2424 9.48569C17.3163 9.33608 17.4306 9.21012 17.5723 9.12205C17.714 9.03398 17.8775 8.9873 18.0444 8.9873C18.2112 8.9873 18.3748 9.03398 18.5165 9.12205C18.6582 9.21012 18.7725 9.33608 18.8464 9.48569L19.9387 11.6989C19.9534 11.7284 19.9749 11.754 20.0015 11.7734C20.0282 11.7928 20.0591 11.8055 20.0917 11.8104L22.5339 12.1647C22.6989 12.189 22.8539 12.2589 22.9813 12.3666C23.1088 12.4743 23.2035 12.6155 23.255 12.7741C23.3065 12.9328 23.3126 13.1027 23.2727 13.2647C23.2328 13.4267 23.1484 13.5743 23.0291 13.6909L21.2627 15.4132C21.239 15.4361 21.2212 15.4645 21.211 15.4958C21.2007 15.5271 21.1983 15.5605 21.2039 15.593L21.6213 18.0248C21.6431 18.1533 21.6367 18.2849 21.6025 18.4106C21.5684 18.5364 21.5072 18.6531 21.4233 18.7528C21.3394 18.8525 21.2348 18.9327 21.1168 18.9879C20.9987 19.043 20.8701 19.0718 20.7398 19.0722Z" fill="#470068"/>
<path d="M18.5367 9.64023L19.629 11.8534C19.6685 11.9331 19.7268 12.0019 19.7987 12.0541C19.8706 12.1064 19.9542 12.1404 20.0421 12.1533L22.4843 12.5085C22.5856 12.5232 22.6808 12.566 22.7591 12.632C22.8374 12.698 22.8956 12.7846 22.9273 12.8819C22.9589 12.9793 22.9627 13.0836 22.9382 13.183C22.9137 13.2824 22.8618 13.3729 22.7885 13.4444L21.0212 15.1668C20.9576 15.2289 20.9101 15.3056 20.8827 15.3902C20.8553 15.4748 20.8489 15.5648 20.864 15.6524L21.2805 18.0852C21.298 18.1861 21.2869 18.2899 21.2484 18.3849C21.2099 18.4798 21.1456 18.562 21.0627 18.6223C20.9798 18.6825 20.8817 18.7182 20.7795 18.7255C20.6773 18.7327 20.5751 18.7112 20.4846 18.6633L18.3042 17.5157C18.2254 17.474 18.1376 17.4522 18.0484 17.4522C17.9592 17.4522 17.8714 17.474 17.7926 17.5157L15.6053 18.6633C15.5148 18.7112 15.4126 18.7327 15.3104 18.7255C15.2082 18.7182 15.1101 18.6825 15.0272 18.6223C14.9443 18.562 14.88 18.4798 14.8415 18.3849C14.803 18.2899 14.7919 18.1861 14.8094 18.0852L15.2259 15.6524C15.241 15.5648 15.2346 15.4748 15.2072 15.3902C15.1798 15.3056 15.1323 15.2289 15.0686 15.1668L13.3014 13.4444C13.2281 13.3729 13.1762 13.2824 13.1517 13.183C13.1272 13.0836 13.131 12.9793 13.1626 12.8819C13.1943 12.7846 13.2525 12.698 13.3308 12.632C13.4091 12.566 13.5042 12.5232 13.6056 12.5085L16.0478 12.1533C16.1357 12.1404 16.2192 12.1064 16.2912 12.0541C16.3631 12.0019 16.4213 11.9331 16.4609 11.8534L17.5532 9.64023C17.5984 9.54833 17.6684 9.47093 17.7553 9.4168C17.8422 9.36268 17.9426 9.33398 18.0449 9.33398C18.1473 9.33398 18.2477 9.36268 18.3346 9.4168C18.4215 9.47093 18.4915 9.54833 18.5367 9.64023Z" fill="url(#paint4_linear_350_6094)"/>
<circle cx="18.0616" cy="13.9997" r="8.12963" stroke="url(#paint5_linear_350_6094)" stroke-width="5"/>
<path opacity="0.15" d="M29.0371 5.31482C28.3792 6.10213 27.7807 6.71007 27.0508 7.41686C26.9967 7.47054 26.9426 7.52422 26.8886 7.5779C26.8525 7.61369 26.8255 7.64053 26.7894 7.67632C26.6543 7.80157 26.5191 7.93577 26.3749 8.06103C26.3208 8.10576 26.2758 8.15049 26.2217 8.20417C26.1857 8.23101 26.1496 8.2668 26.1226 8.29364C26.0775 8.33838 26.0325 8.37416 25.9874 8.40995C21.1931 12.6239 15.1012 15.1916 8.66678 15.6568C8.6037 15.6568 8.54963 15.6658 8.48655 15.6658C8.44149 15.6658 8.39643 15.6747 8.35137 15.6747C8.27927 15.6747 8.21619 15.6837 8.1441 15.6837C7.90979 15.6926 7.67549 15.7105 7.44118 15.7105C7.36909 15.7105 7.28798 15.7194 7.21589 15.7194C7.03565 15.7284 6.85542 15.7284 6.68419 15.7284C5.8461 15.7284 5.008 15.7016 4.1609 15.63C4.09781 15.1021 4.06177 14.5564 4.06177 14.0106C4.06177 6.27168 10.379 0 18.1652 0C21.6708 0 24.7962 1.34536 27.2655 3.45679C27.9053 4.00254 28.4964 4.6617 29.0371 5.31482Z" fill="url(#paint6_linear_350_6094)"/>
<defs>
<filter id="filter0_f_350_6094" x="-53.6705" y="-62.7051" width="132.635" height="133.354" filterUnits="userSpaceOnUse" color-interpolation-filters="sRGB">
<feFlood flood-opacity="0" result="BackgroundImageFix"/>
<feBlend mode="normal" in="SourceGraphic" in2="BackgroundImageFix" result="shape"/>
<feGaussianBlur stdDeviation="29.5" result="effect1_foregroundBlur_350_6094"/>
</filter>
<filter id="filter1_f_350_6094" x="-37.8302" y="-63.0957" width="128.566" height="133.909" filterUnits="userSpaceOnUse" color-interpolation-filters="sRGB">
<feFlood flood-opacity="0" result="BackgroundImageFix"/>
<feBlend mode="normal" in="SourceGraphic" in2="BackgroundImageFix" result="shape"/>
<feGaussianBlur stdDeviation="29.5" result="effect1_foregroundBlur_350_6094"/>
</filter>
<filter id="filter2_f_350_6094" x="-38.2551" y="-40.5889" width="128.223" height="128.224" filterUnits="userSpaceOnUse" color-interpolation-filters="sRGB">
<feFlood flood-opacity="0" result="BackgroundImageFix"/>
<feBlend mode="normal" in="SourceGraphic" in2="BackgroundImageFix" result="shape"/>
<feGaussianBlur stdDeviation="29.5" result="effect1_foregroundBlur_350_6094"/>
</filter>
<filter id="filter3_f_350_6094" x="-54.5021" y="-41.7979" width="128.223" height="128.223" filterUnits="userSpaceOnUse" color-interpolation-filters="sRGB">
<feFlood flood-opacity="0" result="BackgroundImageFix"/>
<feBlend mode="normal" in="SourceGraphic" in2="BackgroundImageFix" result="shape"/>
<feGaussianBlur stdDeviation="29.5" result="effect1_foregroundBlur_350_6094"/>
</filter>
<linearGradient id="paint0_linear_350_6094" x1="33.6717" y1="25.3963" x2="28.4265" y2="21.7201" gradientUnits="userSpaceOnUse">
<stop stop-color="#FC0106"/>
<stop offset="0.5559" stop-color="#E82626"/>
<stop offset="0.6787" stop-color="#B90004"/>
<stop offset="1" stop-color="#790400"/>
</linearGradient>
<linearGradient id="paint1_linear_350_6094" x1="3.02469" y1="24.6732" x2="6.52734" y2="21.738" gradientUnits="userSpaceOnUse">
<stop stop-color="#FC0106"/>
<stop offset="0.493927" stop-color="#E82626"/>
<stop offset="0.716768" stop-color="#B90004"/>
<stop offset="1" stop-color="#790400"/>
</linearGradient>
<linearGradient id="paint2_linear_350_6094" x1="18.0616" y1="3.37012" x2="18.0616" y2="24.6294" gradientUnits="userSpaceOnUse">
<stop stop-color="#BD49D0"/>
<stop offset="0.5" stop-color="#9703B9"/>
<stop offset="1" stop-color="#852878"/>
</linearGradient>
<linearGradient id="paint3_linear_350_6094" x1="18.0617" y1="2.47305" x2="18.0617" y2="25.3961" gradientUnits="userSpaceOnUse">
<stop stop-color="#FFEE02"/>
<stop offset="0.5" stop-color="#D27003"/>
<stop offset="1" stop-color="#FBA400"/>
</linearGradient>
<linearGradient id="paint4_linear_350_6094" x1="18.0464" y1="9.42669" x2="18.0464" y2="17.5973" gradientUnits="userSpaceOnUse">
<stop offset="0.0820804" stop-color="#F7E547"/>
<stop offset="0.2263" stop-color="#FEFCAF"/>
<stop offset="0.3883" stop-color="#F8DC20"/>
<stop offset="0.5895" stop-color="#E67A0B"/>
<stop offset="1" stop-color="#F8DC20"/>
</linearGradient>
<linearGradient id="paint5_linear_350_6094" x1="18.0616" y1="3.37012" x2="18.0616" y2="24.6294" gradientUnits="userSpaceOnUse">
<stop stop-color="#AB2EBE"/>
<stop offset="1" stop-color="#340354"/>
</linearGradient>
<linearGradient id="paint6_linear_350_6094" x1="10.661" y1="2.15825" x2="18.5697" y2="13.2281" gradientUnits="userSpaceOnUse">
<stop offset="0.5084" stop-color="white" stop-opacity="0"/>
<stop offset="1" stop-color="white"/>
</linearGradient>
</defs>
</svg>