<svg width="82" height="82" viewBox="0 0 82 82" fill="none" xmlns="http://www.w3.org/2000/svg">
<g id="arrow-bend-up-left-bold">
<path id="Vector" d="M52.5986 75.6493C52.0193 76.37 51.1773 76.8309 50.2581 76.9308C49.3388 77.0307 48.4176 76.7613 47.6969 76.1819C46.9763 75.6026 46.5153 74.7606 46.4155 73.8414C46.3156 72.9221 46.5849 72.0009 47.1643 71.2802C51.2133 66.2331 53.0947 59.7859 52.3957 53.3532C51.6968 46.9206 48.4746 41.0279 43.4361 36.9682L28.2653 24.7711L29.4886 36.0101C29.5886 36.9309 29.3188 37.8538 28.7384 38.5757C28.158 39.2976 27.3146 39.7593 26.3938 39.8594C25.4729 39.9594 24.55 39.6896 23.8282 39.1092C23.1063 38.5288 22.6445 37.6854 22.5445 36.7646L20.4141 17.1577C20.3637 16.7016 20.4039 16.2401 20.5323 15.7995C20.6607 15.359 20.8748 14.9481 21.1623 14.5905C21.4498 14.2329 21.8051 13.9356 22.2078 13.7155C22.6104 13.4955 23.0526 13.3572 23.5088 13.3084L43.1157 11.178C43.5717 11.1284 44.0329 11.1692 44.4731 11.2979C44.9134 11.4266 45.3239 11.6408 45.6813 11.9282C46.0388 12.2155 46.3361 12.5705 46.5564 12.9728C46.7766 13.3751 46.9155 13.8168 46.965 14.2728C47.0146 14.7287 46.9738 15.19 46.8451 15.6302C46.7164 16.0704 46.5022 16.4809 46.2149 16.8384C45.9275 17.1958 45.5725 17.4932 45.1702 17.7134C44.7679 17.9337 44.3262 18.0725 43.8703 18.1221L32.6344 19.3367L47.8052 31.5339C54.283 36.7537 58.4256 44.33 59.3242 52.6004C60.2229 60.8709 57.8041 69.16 52.5986 75.6493Z" fill="white"/>
</g>
</svg>
