<svg width="166" height="123" viewBox="0 0 166 123" fill="none" xmlns="http://www.w3.org/2000/svg">
<rect x="-10" y="-21" width="187" height="36" fill="#289A5B"/>
<rect x="-10" y="15" width="187" height="36" fill="white"/>
<rect x="-10" y="51" width="187" height="36" fill="#289A5B"/>
<rect x="-10" y="87" width="187" height="36" fill="white"/>
<path d="M120.094 30.3747L120.093 30.3736C113.786 24.3571 105.35 21.0881 96.6357 21.2839C87.9215 21.4796 79.6408 25.124 73.6104 31.4176L73.6092 31.4188L62.6617 42.8693L62.4935 35.194L62.4935 35.1932C62.4788 34.5377 62.3351 33.8916 62.0707 33.2917C61.8062 32.6917 61.4262 32.1498 60.9523 31.6967C60.4784 31.2436 59.92 30.8883 59.3088 30.6511C58.6976 30.4139 58.0456 30.2993 57.3902 30.3141C56.7347 30.3288 56.0886 30.4725 55.4886 30.7369C54.8887 31.0013 54.3467 31.3813 53.8937 31.8552C53.4406 32.3291 53.0853 32.8876 52.8481 33.4988C52.6108 34.11 52.4963 34.7619 52.511 35.4174L52.9538 55.1321C52.9538 55.1327 52.9538 55.1333 52.9539 55.1339C52.9677 55.7894 53.1106 56.4358 53.3746 57.036C53.6388 57.6368 54.0189 58.1795 54.4933 58.633C54.9677 59.0865 55.5269 59.442 56.1389 59.6789C56.7506 59.9157 57.4029 60.0295 58.0586 60.0138C58.059 60.0138 58.0594 60.0138 58.0598 60.0138L77.7745 59.571C79.0983 59.5413 80.356 58.9869 81.271 58.0298C82.186 57.0728 82.6834 55.7914 82.6536 54.4677C82.6239 53.1439 82.0695 51.8862 81.1125 50.9712C80.1554 50.0561 78.8741 49.5588 77.5503 49.5885L77.55 49.5885L69.8689 49.7624L80.8166 38.3117C85.0182 33.9264 90.7878 31.387 96.8596 31.2506C102.931 31.1143 108.809 33.3921 113.203 37.5843C114.159 38.4975 115.438 38.9938 116.76 38.9642C118.082 38.9345 119.338 38.3808 120.252 37.4249C121.166 36.4689 121.663 35.1892 121.633 33.867C121.604 32.5449 121.05 31.2887 120.094 30.3747Z" fill="white" stroke="#289A5B" stroke-width="3"/>
</svg>
