<svg width="82" height="82" viewBox="0 0 82 82" fill="none" xmlns="http://www.w3.org/2000/svg">
<g id="arrow-bend-up-left-bold">
<path id="Vector" d="M75.5937 64.0625C75.5937 65.0819 75.1888 66.0596 74.4679 66.7804C73.7471 67.5013 72.7694 67.9062 71.75 67.9062C70.7306 67.9062 69.7529 67.5013 69.032 66.7804C68.3112 66.0596 67.9062 65.0819 67.9062 64.0625C67.8986 56.9288 65.0614 50.0896 60.0171 45.0453C54.9729 40.0011 48.1336 37.1639 41 37.1562H19.539L28.354 45.968C29.0761 46.6901 29.4818 47.6695 29.4818 48.6907C29.4818 49.7119 29.0761 50.6912 28.354 51.4133C27.6319 52.1354 26.6526 52.5411 25.6314 52.5411C24.6102 52.5411 23.6308 52.1354 22.9087 51.4133L7.53373 36.0383C7.17539 35.6812 6.89107 35.2569 6.69706 34.7897C6.50306 34.3225 6.4032 33.8216 6.4032 33.3157C6.4032 32.8098 6.50306 32.3089 6.69706 31.8417C6.89107 31.3745 7.17539 30.9501 7.53373 30.593L22.9087 15.218C23.2663 14.8605 23.6907 14.5769 24.1579 14.3834C24.625 14.1899 25.1257 14.0903 25.6314 14.0903C26.137 14.0903 26.6377 14.1899 27.1049 14.3834C27.572 14.5769 27.9965 14.8605 28.354 15.218C28.7116 15.5756 28.9952 16 29.1887 16.4672C29.3822 16.9344 29.4818 17.435 29.4818 17.9407C29.4818 18.4463 29.3822 18.947 29.1887 19.4142C28.9952 19.8813 28.7116 20.3058 28.354 20.6633L19.539 29.4687H41C50.1717 29.4789 58.9648 33.1269 65.4502 39.6122C71.9356 46.0976 75.5836 54.8908 75.5937 64.0625Z" fill="white"/>
</g>
</svg>
