<svg width="166" height="123" viewBox="0 0 166 123" fill="none" xmlns="http://www.w3.org/2000/svg">
<rect x="-10" y="-21" width="187" height="36" fill="#289A5B"/>
<rect x="-10" y="15" width="187" height="36" fill="white"/>
<rect x="-10" y="51" width="187" height="36" fill="#289A5B"/>
<rect x="-10" y="87" width="187" height="36" fill="white"/>
<path d="M120.094 64.0625V64.0608C120.083 54.4919 116.277 45.3179 109.511 38.5516C102.745 31.7853 93.5707 27.9794 84.0018 27.9687H84.0001H66.1633L72.4142 21.7246L72.4148 21.724C72.9117 21.2272 73.3058 20.6373 73.5746 19.9882C73.8435 19.3391 73.9819 18.6433 73.9819 17.9407C73.9819 17.2381 73.8435 16.5423 73.5746 15.8932C73.3058 15.244 72.9117 14.6542 72.4148 14.1574C71.918 13.6605 71.3282 13.2664 70.679 12.9975C70.0299 12.7287 69.3341 12.5903 68.6315 12.5903C67.9289 12.5903 67.2331 12.7287 66.584 12.9975C65.9348 13.2664 65.345 13.6605 64.8482 14.1574L49.475 29.5305C49.4747 29.5309 49.4743 29.5313 49.4739 29.5317C48.9763 30.0279 48.5814 30.6174 48.3119 31.2664C48.0422 31.916 47.9033 32.6124 47.9033 33.3157C47.9033 34.019 48.0422 34.7154 48.3119 35.3649C48.5814 36.0141 48.9764 36.6037 49.4742 37.1C49.4745 37.1003 49.4748 37.1006 49.475 37.1008L64.8482 52.474C65.8516 53.4774 67.2125 54.0411 68.6315 54.0411C70.0505 54.0411 71.4114 53.4774 72.4148 52.474C73.4182 51.4706 73.9819 50.1097 73.9819 48.6907C73.9819 47.2717 73.4182 45.9108 72.4148 44.9074L72.4146 44.9072L66.1614 38.6562H83.9985C90.7349 38.6634 97.1933 41.3426 101.957 46.106C106.72 50.8693 109.399 57.3277 109.406 64.0641C109.407 65.4808 109.97 66.8393 110.972 67.8411C111.974 68.8432 113.333 69.4062 114.75 69.4062C116.167 69.4062 117.527 68.8432 118.529 67.8411C119.531 66.8389 120.094 65.4797 120.094 64.0625Z" fill="white" stroke="#289A5B" stroke-width="3"/>
</svg>
