<svg width="82" height="82" viewBox="0 0 82 82" fill="none" xmlns="http://www.w3.org/2000/svg">
<g id="arrow-bend-up-left-bold">
<path id="Vector" d="M77.0573 31.4589C77.7256 32.0979 78.1128 32.9762 78.1335 33.9007C78.1543 34.8251 77.807 35.7199 77.168 36.3882C76.529 37.0566 75.6507 37.4437 74.7263 37.4645C73.8018 37.4853 72.907 37.1379 72.2387 36.499C67.557 32.0325 61.2946 29.6057 54.8258 29.751C48.3569 29.8963 42.2098 32.6018 37.7334 37.2739L24.2814 51.344L35.5839 51.0881C36.5099 51.0673 37.4063 51.4152 38.0758 52.0553C38.7453 52.6954 39.1331 53.5753 39.1539 54.5013C39.1747 55.4273 38.8268 56.3237 38.1867 56.9932C37.5466 57.6627 36.6667 58.0505 35.7407 58.0713L16.0234 58.5142C15.5647 58.5253 15.1083 58.4457 14.6803 58.28C14.2524 58.1144 13.8614 57.8659 13.5298 57.5488C13.1981 57.2317 12.9323 56.8522 12.7476 56.4322C12.5629 56.0121 12.4629 55.5598 12.4534 55.101L12.0105 35.3837C12.0002 34.9251 12.0804 34.4691 12.2463 34.0415C12.4123 33.614 12.6608 33.2233 12.9778 32.8918C13.2947 32.5603 13.6738 32.2944 14.0935 32.1094C14.5132 31.9245 14.9652 31.8239 15.4237 31.8136C15.8823 31.8033 16.3383 31.8835 16.7659 32.0494C17.1934 32.2154 17.5841 32.4639 17.9156 32.7809C18.2471 33.0978 18.513 33.4769 18.698 33.8966C18.8829 34.3163 18.9835 34.7683 18.9938 35.2268L19.2413 46.5254L32.6933 32.4553C38.4489 26.4486 46.3522 22.9702 54.6693 22.7834C62.9863 22.5966 71.0378 25.7166 77.0573 31.4589Z" fill="white"/>
</g>
</svg>
