<svg width="166" height="123" viewBox="0 0 166 123" fill="none" xmlns="http://www.w3.org/2000/svg">
<rect x="-10" y="-21" width="187" height="36" fill="#289A5B"/>
<rect x="-10" y="15" width="187" height="36" fill="white"/>
<rect x="-10" y="51" width="187" height="36" fill="#289A5B"/>
<rect x="-10" y="87" width="187" height="36" fill="white"/>
<path d="M96.7677 76.5892L96.7687 76.5879C102.223 69.7888 104.757 61.1038 103.815 52.4384C102.874 43.773 98.5335 35.835 91.7464 30.3659L91.7451 30.3648L79.3988 20.4385L87.0315 19.6134L87.0323 19.6133C87.6841 19.5425 88.3155 19.344 88.8906 19.0291C89.4657 18.7143 89.9731 18.2892 90.3839 17.7783C90.7947 17.2673 91.1008 16.6804 91.2848 16.0512C91.4688 15.4219 91.5271 14.7625 91.4563 14.1108C91.3854 13.459 91.1869 12.8275 90.8721 12.2524C90.5572 11.6774 90.1322 11.1699 89.6212 10.7591C89.1103 10.3483 88.5234 10.0422 87.8941 9.85819C87.2648 9.67419 86.6055 9.61594 85.9537 9.68676L66.3494 11.8169C66.3489 11.8169 66.3485 11.817 66.348 11.817C65.6959 11.8869 65.0641 12.0848 64.4885 12.3992C63.9126 12.7139 63.4045 13.1392 62.9932 13.6506C62.582 14.1621 62.2758 14.7497 62.0922 15.3798C61.9087 16.0095 61.8512 16.6692 61.923 17.3211C61.923 17.3215 61.9231 17.3219 61.9231 17.3223L64.0532 36.9266C64.1963 38.2429 64.8563 39.4486 65.8883 40.2782C66.9202 41.1079 68.2395 41.4936 69.5558 41.3506C70.8721 41.2076 72.0778 40.5475 72.9074 39.5156C73.7371 38.4836 74.1228 37.1644 73.9798 35.848L73.9798 35.8478L73.1484 28.2097L85.495 38.1362C90.2241 41.9467 93.2485 47.4776 93.9045 53.5153C94.5605 59.553 92.7946 65.6043 88.9943 70.3416C88.1663 71.3721 87.7814 72.6892 87.9242 74.0034C88.0671 75.3182 88.7264 76.5223 89.757 77.351C90.7877 78.1796 92.1054 78.5649 93.4201 78.422C94.7349 78.2792 95.939 77.6199 96.7677 76.5892Z" fill="white" stroke="#289A5B" stroke-width="3"/>
</svg>
