<svg width="510" height="281" viewBox="0 0 510 281" fill="none" xmlns="http://www.w3.org/2000/svg">
<path d="M228.1 268.7C212.9 272.5 197.1 275.4 180.7 277.4C164.5 279.6 148.8 280.7 133.6 280.7C115.6 280.7 99.8 279 86.2 275.6C72.8 272.4 62.9 267.3 56.5 260.3C50.7 253.9 46.6 246.6 44.2 238.4C41.8 230.2 40.6 220.9 40.6 210.5C40.6 202.3 41.3 191.7 42.7 178.7L78.7 182.3C77.5 193.7 76.9 203.3 76.9 211.1C76.9 224.7 78.9 233.5 82.9 237.5C85.9 240.7 91.8 243.1 100.6 244.7C109.4 246.5 120.1 247.4 132.7 247.4C147.3 247.4 163 246.3 179.8 244.1C196.8 241.9 212.9 238.7 228.1 234.5V268.7ZM220.6 7.99998V69.8H249.4V105.8H220.6V194.6H184.6V7.99998H220.6ZM101.8 188.3C107.2 182.5 112.4 173.8 117.4 162.2C122.6 150.6 125.2 139.7 125.2 129.5C125.2 116.5 120.8 107 112 101C108.8 116.4 101.9 128.7 91.3 137.9C80.7 147.1 65.6 151.7 46 151.7C36.8 151.7 28.7 149.9 21.7 146.3C14.9 142.7 9.6 137.9 5.8 131.9C2.2 125.7 0.4 119.1 0.4 112.1C0.4 104.5 2.7 97.1 7.3 89.9C11.9 82.7 18.9 76.5 28.3 71.3C37.9 66.1 49.7 62.7 63.7 61.1L78.1 59.9V15.8H114.1V63.5C130.7 67.9 142.7 76 150.1 87.8C157.5 99.6 161.2 113.4 161.2 129.2C161.2 139.8 159.8 150.4 157 161C154.2 171.4 150.7 180.5 146.5 188.3H101.8ZM46.3 118.7C56.1 118.7 63.4 116.7 68.2 112.7C73 108.5 76 102.1 77.2 93.5L67.9 94.1C57.9 95.1 50.1 97.4 44.5 101C38.9 104.6 36.1 108.2 36.1 111.8C36.1 113.8 37 115.5 38.8 116.9C40.6 118.1 43.1 118.7 46.3 118.7ZM473.905 281V231.5C473.905 214.9 456.605 206.6 422.005 206.6C397.805 206.6 365.405 210.5 324.805 218.3L318.205 185.9C359.805 178.1 393.505 174.2 419.305 174.2C479.705 174.2 509.905 193.3 509.905 231.5V281H473.905ZM508.705 7.99998V164.6H472.705V108.8H454.705V164.6H418.705V11H454.705V72.8H472.705V7.99998H508.705ZM289.705 21.5H326.005C325.405 16.7 325.105 9.79999 325.105 0.799988H361.105C361.105 8.79999 362.005 15.7 363.805 21.5H407.005C403.005 46.5 398.205 67.2 392.605 83.6C400.005 87.6 405.405 92.9 408.805 99.5C412.205 105.9 413.905 113 413.905 120.8C413.905 127.4 412.805 134.1 410.605 140.9C408.605 147.5 405.805 153.7 402.205 159.5H356.905C370.505 144.7 377.305 132.8 377.305 123.8C377.305 121.8 377.005 120.1 376.405 118.7C361.205 143.1 341.405 156.5 317.005 158.9C315.805 159.1 313.905 159.2 311.305 159.2C299.105 159.2 289.305 155.9 281.905 149.3C274.705 142.5 271.105 134.3 271.105 124.7C271.105 117.9 273.105 111.3 277.105 104.9C281.305 98.3 287.505 92.6 295.705 87.8C304.105 83 314.505 79.7 326.905 77.9C338.305 76.1 348.805 75.4 358.405 75.8C361.005 68.8 363.105 61.7 364.705 54.5H289.705V21.5ZM311.905 125.9C322.105 125.9 331.805 120.4 341.005 109.4L332.305 110.3C323.705 111.5 317.105 113.3 312.505 115.7C308.105 118.1 305.905 120.4 305.905 122.6C305.905 124.8 307.905 125.9 311.905 125.9Z" fill="#289A5B"/>
</svg>
