<svg width="82" height="82" viewBox="0 0 82 82" fill="none" xmlns="http://www.w3.org/2000/svg">
<g id="arrow-bend-up-left-bold">
<path id="Vector" d="M6.40627 64.0625C6.40627 65.0819 6.81124 66.0596 7.53208 66.7804C8.25292 67.5013 9.2306 67.9062 10.25 67.9062C11.2694 67.9062 12.2471 67.5013 12.968 66.7804C13.6888 66.0596 14.0938 65.0819 14.0938 64.0625C14.1014 56.9288 16.9386 50.0896 21.9829 45.0453C27.0271 40.0011 33.8664 37.1639 41 37.1562H62.461L53.646 45.968C52.9239 46.6901 52.5182 47.6695 52.5182 48.6907C52.5182 49.7119 52.9239 50.6912 53.646 51.4133C54.3681 52.1354 55.3474 52.5411 56.3686 52.5411C57.3898 52.5411 58.3692 52.1354 59.0913 51.4133L74.4663 36.0383C74.8246 35.6812 75.1089 35.2569 75.3029 34.7897C75.4969 34.3225 75.5968 33.8216 75.5968 33.3157C75.5968 32.8098 75.4969 32.3089 75.3029 31.8417C75.1089 31.3745 74.8246 30.9501 74.4663 30.593L59.0913 15.218C58.7337 14.8605 58.3093 14.5769 57.8421 14.3834C57.375 14.1899 56.8743 14.0903 56.3686 14.0903C55.863 14.0903 55.3623 14.1899 54.8951 14.3834C54.428 14.5769 54.0035 14.8605 53.646 15.218C53.2884 15.5756 53.0048 16 52.8113 16.4672C52.6178 16.9344 52.5182 17.435 52.5182 17.9407C52.5182 18.4463 52.6178 18.947 52.8113 19.4142C53.0048 19.8813 53.2884 20.3058 53.646 20.6633L62.461 29.4687H41C31.8283 29.4789 23.0352 33.1269 16.5498 39.6122C10.0644 46.0976 6.41644 54.8908 6.40627 64.0625Z" fill="white"/>
</g>
</svg>
