<svg width="166" height="123" viewBox="0 0 166 123" fill="none" xmlns="http://www.w3.org/2000/svg">
<rect x="-10" y="-21" width="187" height="36" fill="#289A5B"/>
<rect x="-10" y="15" width="187" height="36" fill="white"/>
<rect x="-10" y="51" width="187" height="36" fill="#289A5B"/>
<rect x="-10" y="87" width="187" height="36" fill="white"/>
<path d="M70.2323 76.5892L70.2313 76.5879C64.7773 69.7888 62.243 61.1038 63.1845 52.4384C64.1261 43.773 68.4665 35.835 75.2536 30.3659L75.2549 30.3648L87.6012 20.4385L79.9685 19.6134L79.9677 19.6133C79.3159 19.5425 78.6845 19.344 78.1094 19.0291C77.5343 18.7143 77.0269 18.2892 76.6161 17.7783C76.2053 17.2673 75.8992 16.6804 75.7152 16.0512C75.5312 15.4219 75.4729 14.7625 75.5437 14.1108C75.6146 13.459 75.8131 12.8275 76.1279 12.2524C76.4428 11.6774 76.8678 11.1699 77.3788 10.7591C77.8897 10.3483 78.4766 10.0422 79.1059 9.85819C79.7352 9.67419 80.3945 9.61594 81.0463 9.68676L100.651 11.8169C100.651 11.8169 100.652 11.817 100.652 11.817C101.304 11.8869 101.936 12.0848 102.511 12.3992C103.087 12.7139 103.596 13.1392 104.007 13.6506C104.418 14.1621 104.724 14.7497 104.908 15.3798C105.091 16.0095 105.149 16.6692 105.077 17.3211C105.077 17.3215 105.077 17.3219 105.077 17.3223L102.947 36.9266C102.804 38.2429 102.144 39.4486 101.112 40.2782C100.08 41.1079 98.7605 41.4936 97.4442 41.3506C96.1279 41.2076 94.9222 40.5475 94.0926 39.5156C93.2629 38.4836 92.8772 37.1644 93.0202 35.848L93.0202 35.8478L93.8516 28.2097L81.505 38.1362C76.7759 41.9467 73.7515 47.4776 73.0955 53.5153C72.4395 59.553 74.2054 65.6043 78.0057 70.3416C78.8337 71.3721 79.2186 72.6892 79.0758 74.0034C78.9329 75.3182 78.2736 76.5223 77.243 77.351C76.2123 78.1796 74.8946 78.5649 73.5799 78.422C72.2651 78.2792 71.061 77.6199 70.2323 76.5892Z" fill="white" stroke="#289A5B" stroke-width="3"/>
</svg>
