<svg width="82" height="82" viewBox="0 0 82 82" fill="none" xmlns="http://www.w3.org/2000/svg">
<g id="arrow-bend-up-left-bold">
<path id="Vector" d="M29.4014 75.6493C29.9807 76.37 30.8227 76.8309 31.7419 76.9308C32.6612 77.0307 33.5824 76.7613 34.3031 76.1819C35.0237 75.6026 35.4847 74.7606 35.5845 73.8414C35.6844 72.9221 35.4151 72.0009 34.8357 71.2802C30.7867 66.2331 28.9053 59.7859 29.6043 53.3532C30.3032 46.9206 33.5254 41.0279 38.5639 36.9682L53.7347 24.7711L52.5114 36.0101C52.4114 36.9309 52.6812 37.8538 53.2616 38.5757C53.842 39.2976 54.6854 39.7593 55.6062 39.8594C56.5271 39.9594 57.45 39.6896 58.1718 39.1092C58.8937 38.5288 59.3555 37.6854 59.4555 36.7646L61.5859 17.1577C61.6363 16.7016 61.5961 16.2401 61.4677 15.7995C61.3393 15.359 61.1252 14.9481 60.8377 14.5905C60.5502 14.2329 60.1949 13.9356 59.7922 13.7155C59.3896 13.4955 58.9474 13.3572 58.4912 13.3084L38.8843 11.178C38.4283 11.1284 37.9671 11.1692 37.5269 11.2979C37.0866 11.4266 36.6761 11.6408 36.3187 11.9282C35.9612 12.2155 35.6639 12.5705 35.4436 12.9728C35.2234 13.3751 35.0845 13.8168 35.035 14.2728C34.9854 14.7287 35.0262 15.19 35.1549 15.6302C35.2836 16.0704 35.4978 16.4809 35.7851 16.8384C36.0725 17.1958 36.4275 17.4932 36.8298 17.7134C37.2321 17.9337 37.6738 18.0725 38.1297 18.1221L49.3656 19.3367L34.1948 31.5339C27.717 36.7537 23.5744 44.33 22.6758 52.6004C21.7771 60.8709 24.1959 69.16 29.4014 75.6493Z" fill="white"/>
</g>
</svg>
