<svg width="82" height="82" viewBox="0 0 82 82" fill="none" xmlns="http://www.w3.org/2000/svg">
<g id="arrow-bend-up-left-bold">
<path id="Vector" d="M4.9426 31.4589C4.27425 32.0979 3.88711 32.9762 3.86635 33.9007C3.84559 34.8251 4.1929 35.7199 4.83189 36.3882C5.47088 37.0566 6.3492 37.4437 7.27363 37.4645C8.19806 37.4853 9.09287 37.1379 9.76122 36.499C14.4429 32.0325 20.7052 29.6057 27.1741 29.751C33.643 29.8963 39.7901 32.6018 44.2665 37.2739L57.7185 51.344L46.416 51.0881C45.49 51.0673 44.5936 51.4152 43.9241 52.0553C43.2546 52.6954 42.8668 53.5753 42.846 54.5013C42.8252 55.4273 43.1731 56.3237 43.8132 56.9932C44.4533 57.6627 45.3331 58.0505 46.2592 58.0713L65.9765 58.5142C66.4352 58.5253 66.8916 58.4457 67.3195 58.28C67.7474 58.1144 68.1385 57.8659 68.4701 57.5488C68.8018 57.2317 69.0676 56.8522 69.2523 56.4322C69.437 56.0121 69.537 55.5598 69.5465 55.101L69.9893 35.3837C69.9996 34.9251 69.9195 34.4691 69.7536 34.0415C69.5876 33.614 69.3391 33.2233 69.0221 32.8918C68.7052 32.5603 68.326 32.2944 67.9064 32.1094C67.4867 31.9245 67.0347 31.8239 66.5762 31.8136C66.1176 31.8033 65.6616 31.8835 65.234 32.0494C64.8064 32.2154 64.4158 32.4639 64.0842 32.7809C63.7527 33.0978 63.4869 33.4769 63.3019 33.8966C63.1169 34.3163 63.0164 34.7683 63.0061 35.2268L62.7585 46.5254L49.3066 32.4553C43.5509 26.4486 35.6476 22.9702 27.3306 22.7834C19.0136 22.5966 10.9621 25.7166 4.9426 31.4589Z" fill="white"/>
</g>
</svg>
