<svg width="166" height="123" viewBox="0 0 166 123" fill="none" xmlns="http://www.w3.org/2000/svg">
<rect x="-10" y="-21" width="187" height="36" fill="#289A5B"/>
<rect x="-10" y="15" width="187" height="36" fill="white"/>
<rect x="-10" y="51" width="187" height="36" fill="#289A5B"/>
<rect x="-10" y="87" width="187" height="36" fill="white"/>
<path d="M47.9063 64.0625V64.0608C47.9169 54.4919 51.7228 45.3179 58.4891 38.5516C65.2554 31.7853 74.4294 27.9794 83.9984 27.9688H84H101.837L95.5859 21.7246L95.5853 21.724C95.0885 21.2272 94.6944 20.6374 94.4255 19.9882C94.1566 19.3391 94.0182 18.6433 94.0182 17.9407C94.0182 17.2381 94.1566 16.5423 94.4255 15.8932C94.6944 15.244 95.0885 14.6542 95.5853 14.1574C96.0821 13.6606 96.672 13.2664 97.3211 12.9976C97.9702 12.7287 98.666 12.5903 99.3686 12.5903C100.071 12.5903 100.767 12.7287 101.416 12.9976C102.065 13.2664 102.655 13.6606 103.152 14.1574L118.525 29.5305C118.525 29.5309 118.526 29.5313 118.526 29.5317C119.024 30.0279 119.419 30.6174 119.688 31.2665C119.958 31.916 120.097 32.6124 120.097 33.3157C120.097 34.019 119.958 34.7154 119.688 35.365C119.419 36.0141 119.024 36.6038 118.526 37.1C118.526 37.1003 118.525 37.1006 118.525 37.1009L103.152 52.474C102.149 53.4774 100.788 54.0411 99.3686 54.0411C97.9496 54.0411 96.5887 53.4774 95.5853 52.474C94.5819 51.4706 94.0182 50.1097 94.0182 48.6907C94.0182 47.2717 94.5819 45.9108 95.5853 44.9074L95.5855 44.9072L101.839 38.6563H84.0016C77.2653 38.6635 70.8069 41.3427 66.0435 46.106C61.2802 50.8693 58.601 57.3277 58.5938 64.0641C58.5933 65.4808 58.0304 66.8393 57.0286 67.8411C56.0265 68.8433 54.6673 69.4062 53.25 69.4062C51.8328 69.4062 50.4736 68.8433 49.4714 67.8411C48.4693 66.839 47.9063 65.4798 47.9063 64.0625Z" fill="white" stroke="#289A5B" stroke-width="3"/>
</svg>
