<svg width="166" height="123" viewBox="0 0 166 123" fill="none" xmlns="http://www.w3.org/2000/svg">
<rect x="-10" y="-21" width="187" height="36" fill="#289A5B"/>
<rect x="-10" y="15" width="187" height="36" fill="white"/>
<rect x="-10" y="51" width="187" height="36" fill="#289A5B"/>
<rect x="-10" y="87" width="187" height="36" fill="white"/>
<path d="M45.9061 30.3747L45.9074 30.3736C52.2143 24.3571 60.6502 21.0881 69.3644 21.2839C78.0786 21.4796 86.3593 25.124 92.3897 31.4176L92.3909 31.4188L103.338 42.8693L103.507 35.194L103.507 35.1932C103.521 34.5377 103.665 33.8916 103.929 33.2917C104.194 32.6917 104.574 32.1498 105.048 31.6967C105.522 31.2436 106.08 30.8883 106.691 30.6511C107.303 30.4139 107.955 30.2993 108.61 30.3141C109.265 30.3288 109.912 30.4725 110.511 30.7369C111.111 31.0013 111.653 31.3813 112.106 31.8552C112.56 32.3291 112.915 32.8876 113.152 33.4988L111.761 34.0387L113.152 33.4988C113.389 34.11 113.504 34.7619 113.489 35.4174L113.046 55.1321C113.046 55.1327 113.046 55.1332 113.046 55.1338C113.032 55.7894 112.889 56.4358 112.626 57.036C112.361 57.6368 111.981 58.1795 111.507 58.633C111.032 59.0865 110.473 59.442 109.861 59.6789C109.25 59.9157 108.597 60.0295 107.942 60.0138C107.941 60.0138 107.941 60.0138 107.94 60.0138L88.2256 59.571C86.9019 59.5413 85.6441 58.9869 84.7291 58.0298C83.8141 57.0728 83.3167 55.7914 83.3465 54.4677C83.3762 53.1439 83.9306 51.8862 84.8876 50.9712C85.8447 50.0561 87.1261 49.5588 88.4498 49.5885L88.4501 49.5885L96.1312 49.7624L85.1835 38.3117C80.9819 33.9264 75.2123 31.387 69.1406 31.2506C63.0689 31.1143 57.191 33.3921 52.7968 37.5843C51.841 38.4975 50.5617 38.9938 49.2401 38.9642C47.9179 38.9345 46.6617 38.3808 45.7478 37.4249C44.8339 36.469 44.3372 35.1892 44.3669 33.867C44.3965 32.5449 44.9502 31.2887 45.9061 30.3747Z" fill="white" stroke="#289A5B" stroke-width="3"/>
</svg>
