<svg xmlns="http://www.w3.org/2000/svg" width="36" height="28" viewBox="0 0 36 28" fill="none">
<path d="M26.7902 24.7159C26.7902 24.7159 27.3087 25.466 28.9602 26.5186C29.0837 26.5964 29.2134 26.6768 29.3499 26.758C29.8684 27.0682 30.4777 27.3984 31.1976 27.7406L31.3704 23.3332C31.3704 23.3332 33.6173 23.506 35.605 22.6418C35.376 22.5277 34.3891 21.9963 32.97 20.8961C32.843 20.7985 32.7108 20.6948 32.5777 20.5868C31.9503 20.0821 31.2511 19.4745 30.5036 18.7529C29.3828 20.6542 26.7902 24.7159 26.7902 24.7159Z" fill="url(#paint0_linear_350_6148)"/>
<path d="M8.81481 24.4571C8.81481 24.4571 8.2963 25.2072 6.64481 26.2598C6.52123 26.3376 6.3916 26.418 6.25506 26.4992C5.73654 26.8095 5.13161 27.1396 4.40741 27.4818L4.23457 23.0744C4.23457 23.0744 1.98765 23.2472 0 22.383C0.229012 22.269 1.21593 21.7375 2.63494 20.6374C2.76198 20.5397 2.8942 20.436 3.02728 20.328C3.65469 19.8233 4.35383 19.2157 5.10136 18.4941C6.22222 20.3954 8.81481 24.4571 8.81481 24.4571Z" fill="url(#paint1_linear_350_6148)"/>
<path d="M6.64476 26.26C6.52118 26.3378 6.39155 26.4181 6.25501 26.4994C5.94649 25.4978 4.71674 23.2854 4.23452 22.6424C3.89515 22.1811 3.51947 21.7476 3.11106 21.3461C2.95118 21.1863 2.75847 20.8622 2.63489 20.6375C2.76192 20.5399 2.89415 20.4361 3.02723 20.3281C3.18452 20.577 3.42304 20.9495 3.63217 21.2597C3.97785 21.7782 6.13834 24.5437 6.3976 25.0622C6.56785 25.4061 6.62489 25.9394 6.64476 26.26Z" fill="#9925E8"/>
<path fill-rule="evenodd" clip-rule="evenodd" d="M17.8025 28C25.5345 28 31.8025 21.732 31.8025 14C31.8025 6.26801 25.5345 0 17.8025 0C10.0705 0 3.80249 6.26801 3.80249 14C3.80249 21.732 10.0705 28 17.8025 28ZM17.8027 24.6294C23.6733 24.6294 28.4324 19.8703 28.4324 13.9997C28.4324 8.12916 23.6733 3.37012 17.8027 3.37012C11.9321 3.37012 7.1731 8.12916 7.1731 13.9997C7.1731 19.8703 11.9321 24.6294 17.8027 24.6294Z" fill="#6C7E92"/>
<mask id="mask0_350_6148" style="mask-type:alpha" maskUnits="userSpaceOnUse" x="3" y="0" width="29" height="28">
<path fill-rule="evenodd" clip-rule="evenodd" d="M17.8025 28C25.5345 28 31.8025 21.732 31.8025 14C31.8025 6.26801 25.5345 0 17.8025 0C10.0705 0 3.80249 6.26801 3.80249 14C3.80249 21.732 10.0705 28 17.8025 28ZM17.8027 24.6294C23.6733 24.6294 28.4324 19.8703 28.4324 13.9997C28.4324 8.12916 23.6733 3.37012 17.8027 3.37012C11.9321 3.37012 7.1731 8.12916 7.1731 13.9997C7.1731 19.8703 11.9321 24.6294 17.8027 24.6294Z" fill="#6C7E92"/>
</mask>
<g mask="url(#mask0_350_6148)">
<g filter="url(#filter0_f_350_6148)">
<ellipse cx="9.24486" cy="4.77686" rx="3.19753" ry="6.48148" transform="rotate(42.5525 9.24486 4.77686)" fill="#F0F2F7"/>
</g>
<g filter="url(#filter1_f_350_6148)">
<ellipse cx="26.837" cy="4.77665" rx="3.19753" ry="6.48148" transform="rotate(150 26.837 4.77665)" fill="#F0F2F7"/>
</g>
<g filter="url(#filter2_f_350_6148)">
<ellipse cx="25.5972" cy="23.5231" rx="3.19753" ry="6.48148" transform="rotate(-135 25.5972 23.5231)" fill="#F0F2F7"/>
</g>
<g filter="url(#filter3_f_350_6148)">
<ellipse cx="9.35032" cy="22.3133" rx="3.19753" ry="6.48148" transform="rotate(-45 9.35032 22.3133)" fill="#889BAF"/>
</g>
</g>
<circle cx="17.8025" cy="14.0007" r="10.6296" fill="url(#paint2_linear_350_6148)"/>
<circle cx="17.8025" cy="14.0007" r="8.12963" stroke="url(#paint3_linear_350_6148)" stroke-width="5"/>
<path fill-rule="evenodd" clip-rule="evenodd" d="M17.8024 25.4076C24.1026 25.4076 29.2098 20.3003 29.2098 14.0002C29.2098 7.70004 24.1026 2.59277 17.8024 2.59277C11.5023 2.59277 6.39502 7.70004 6.39502 14.0002C6.39502 20.3003 11.5023 25.4076 17.8024 25.4076ZM17.8025 24.6294C23.6731 24.6294 28.4321 19.8703 28.4321 13.9997C28.4321 8.12916 23.6731 3.37012 17.8025 3.37012C11.9319 3.37012 7.17285 8.12916 7.17285 13.9997C7.17285 19.8703 11.9319 24.6294 17.8025 24.6294Z" fill="url(#paint4_linear_350_6148)"/>
<path d="M20.4807 19.0722C20.3353 19.0721 20.1923 19.0362 20.0641 18.9677L17.8794 17.82C17.8504 17.8047 17.8181 17.7967 17.7852 17.7967C17.7524 17.7967 17.7201 17.8047 17.691 17.82L15.5063 18.9677C15.3782 19.0362 15.2351 19.0721 15.0898 19.0722C14.9595 19.0718 14.8309 19.043 14.7129 18.9879C14.5948 18.9327 14.4902 18.8525 14.4063 18.7528C14.3224 18.6531 14.2613 18.5364 14.2271 18.4106C14.1929 18.2849 14.1865 18.1533 14.2083 18.0248L14.6257 15.593C14.6313 15.5605 14.6289 15.5271 14.6187 15.4958C14.6084 15.4645 14.5907 15.4361 14.567 15.4132L12.8005 13.6909C12.6812 13.5743 12.5968 13.4267 12.5569 13.2647C12.517 13.1027 12.5231 12.9328 12.5746 12.7741C12.6261 12.6155 12.7209 12.4743 12.8483 12.3666C12.9757 12.2589 13.1307 12.189 13.2957 12.1647L15.7379 11.8104C15.7705 11.8055 15.8015 11.7928 15.8281 11.7734C15.8547 11.754 15.8763 11.7284 15.8909 11.6989L16.9833 9.48569C17.0571 9.33608 17.1714 9.21012 17.3131 9.12205C17.4548 9.03398 17.6184 8.9873 17.7852 8.9873C17.9521 8.9873 18.1156 9.03398 18.2573 9.12205C18.3991 9.21012 18.5133 9.33608 18.5872 9.48569L19.6796 11.6989C19.6942 11.7284 19.7158 11.754 19.7424 11.7734C19.769 11.7928 19.7999 11.8055 19.8325 11.8104L22.2747 12.1647C22.4398 12.189 22.5948 12.2589 22.7222 12.3666C22.8496 12.4743 22.9444 12.6155 22.9959 12.7741C23.0474 12.9328 23.0535 13.1027 23.0136 13.2647C22.9736 13.4267 22.8893 13.5743 22.7699 13.6909L21.0035 15.4132C20.9798 15.4361 20.9621 15.4645 20.9518 15.4958C20.9416 15.5271 20.9391 15.5605 20.9447 15.593L21.3621 18.0248C21.384 18.1533 21.3776 18.2849 21.3434 18.4106C21.3092 18.5364 21.248 18.6531 21.1641 18.7528C21.0802 18.8525 20.9756 18.9327 20.8576 18.9879C20.7396 19.043 20.611 19.0718 20.4807 19.0722Z" fill="#053A4C"/>
<path d="M18.2775 9.64023L19.3699 11.8534C19.4094 11.9331 19.4676 12.0019 19.5395 12.0541C19.6115 12.1064 19.695 12.1404 19.783 12.1533L22.2252 12.5085C22.3265 12.5232 22.4217 12.566 22.4999 12.632C22.5782 12.698 22.6365 12.7846 22.6681 12.8819C22.6998 12.9793 22.7035 13.0836 22.679 13.183C22.6545 13.2824 22.6027 13.3729 22.5294 13.4444L20.7621 15.1668C20.6985 15.2289 20.6509 15.3056 20.6235 15.3902C20.5961 15.4748 20.5897 15.5648 20.6048 15.6524L21.0213 18.0852C21.0389 18.1861 21.0278 18.2899 20.9893 18.3849C20.9508 18.4798 20.8864 18.562 20.8035 18.6223C20.7206 18.6825 20.6225 18.7182 20.5204 18.7255C20.4182 18.7327 20.316 18.7112 20.2254 18.6633L18.045 17.5157C17.9662 17.474 17.8784 17.4522 17.7892 17.4522C17.7001 17.4522 17.6123 17.474 17.5334 17.5157L15.3462 18.6633C15.2556 18.7112 15.1534 18.7327 15.0512 18.7255C14.949 18.7182 14.8509 18.6825 14.768 18.6223C14.6852 18.562 14.6208 18.4798 14.5823 18.3849C14.5438 18.2899 14.5327 18.1861 14.5502 18.0852L14.9668 15.6524C14.9819 15.5648 14.9755 15.4748 14.9481 15.3902C14.9207 15.3056 14.8731 15.2289 14.8095 15.1668L13.0422 13.4444C12.9689 13.3729 12.9171 13.2824 12.8926 13.183C12.868 13.0836 12.8718 12.9793 12.9035 12.8819C12.9351 12.7846 12.9934 12.698 13.0716 12.632C13.1499 12.566 13.2451 12.5232 13.3464 12.5085L15.7886 12.1533C15.8766 12.1404 15.9601 12.1064 16.032 12.0541C16.104 12.0019 16.1622 11.9331 16.2017 11.8534L17.2941 9.64023C17.3392 9.54833 17.4092 9.47093 17.4961 9.4168C17.5831 9.36268 17.6834 9.33398 17.7858 9.33398C17.8882 9.33398 17.9885 9.36268 18.0754 9.4168C18.1624 9.47093 18.2324 9.54833 18.2775 9.64023Z" fill="url(#paint5_linear_350_6148)"/>
<path opacity="0.15" d="M28.7778 5.31482C28.1199 6.10213 27.5215 6.71007 26.7915 7.41686C26.7374 7.47054 26.6834 7.52422 26.6293 7.5779C26.5933 7.61369 26.5662 7.64053 26.5302 7.67632C26.395 7.80157 26.2598 7.93577 26.1156 8.06103C26.0616 8.10576 26.0165 8.15049 25.9624 8.20417C25.9264 8.23101 25.8903 8.2668 25.8633 8.29364C25.8182 8.33838 25.7732 8.37416 25.7281 8.40995C20.9339 12.6239 14.8419 15.1916 8.4075 15.6568C8.34442 15.6568 8.29035 15.6658 8.22727 15.6658C8.18221 15.6658 8.13715 15.6747 8.09209 15.6747C8.02 15.6747 7.95692 15.6837 7.88482 15.6837C7.65052 15.6926 7.41621 15.7105 7.1819 15.7105C7.10981 15.7105 7.0287 15.7194 6.95661 15.7194C6.77637 15.7284 6.59614 15.7284 6.42491 15.7284C5.58682 15.7284 4.74873 15.7016 3.90162 15.63C3.83854 15.1021 3.80249 14.5564 3.80249 14.0106C3.80249 6.27168 10.1197 0 17.9059 0C21.4115 0 24.537 1.34536 27.0062 3.45679C27.646 4.00254 28.2371 4.6617 28.7778 5.31482Z" fill="url(#paint6_linear_350_6148)"/>
<defs>
<filter id="filter0_f_350_6148" x="-54.7321" y="-59.4658" width="127.954" height="128.485" filterUnits="userSpaceOnUse" color-interpolation-filters="sRGB">
<feFlood flood-opacity="0" result="BackgroundImageFix"/>
<feBlend mode="normal" in="SourceGraphic" in2="BackgroundImageFix" result="shape"/>
<feGaussianBlur stdDeviation="29.5" result="effect1_foregroundBlur_350_6148"/>
</filter>
<filter id="filter1_f_350_6148" x="-36.4257" y="-60.0615" width="126.526" height="129.676" filterUnits="userSpaceOnUse" color-interpolation-filters="sRGB">
<feFlood flood-opacity="0" result="BackgroundImageFix"/>
<feBlend mode="normal" in="SourceGraphic" in2="BackgroundImageFix" result="shape"/>
<feGaussianBlur stdDeviation="29.5" result="effect1_foregroundBlur_350_6148"/>
</filter>
<filter id="filter2_f_350_6148" x="-38.5143" y="-40.5889" width="128.223" height="128.224" filterUnits="userSpaceOnUse" color-interpolation-filters="sRGB">
<feFlood flood-opacity="0" result="BackgroundImageFix"/>
<feBlend mode="normal" in="SourceGraphic" in2="BackgroundImageFix" result="shape"/>
<feGaussianBlur stdDeviation="29.5" result="effect1_foregroundBlur_350_6148"/>
</filter>
<filter id="filter3_f_350_6148" x="-54.7613" y="-41.7979" width="128.223" height="128.223" filterUnits="userSpaceOnUse" color-interpolation-filters="sRGB">
<feFlood flood-opacity="0" result="BackgroundImageFix"/>
<feBlend mode="normal" in="SourceGraphic" in2="BackgroundImageFix" result="shape"/>
<feGaussianBlur stdDeviation="29.5" result="effect1_foregroundBlur_350_6148"/>
</filter>
<linearGradient id="paint0_linear_350_6148" x1="33.0556" y1="25.148" x2="28.5618" y2="22.3393" gradientUnits="userSpaceOnUse">
<stop offset="0.01" stop-color="#9D00FF"/>
<stop offset="0.41" stop-color="#7B00DB"/>
<stop offset="0.53" stop-color="#9825E4"/>
<stop offset="0.62" stop-color="#6800B5"/>
<stop offset="1" stop-color="#400071"/>
</linearGradient>
<linearGradient id="paint1_linear_350_6148" x1="1.93321" y1="25.1441" x2="7.18148" y2="21.4687" gradientUnits="userSpaceOnUse">
<stop offset="0.01" stop-color="#9D00FF"/>
<stop offset="0.41" stop-color="#7B00DB"/>
<stop offset="0.53" stop-color="#9825E4"/>
<stop offset="0.62" stop-color="#6800B5"/>
<stop offset="1" stop-color="#400071"/>
</linearGradient>
<linearGradient id="paint2_linear_350_6148" x1="17.8025" y1="3.37109" x2="17.8025" y2="24.6304" gradientUnits="userSpaceOnUse">
<stop stop-color="#2A99A4"/>
<stop offset="0.484375" stop-color="#10667B"/>
<stop offset="1" stop-color="#184A61"/>
</linearGradient>
<linearGradient id="paint3_linear_350_6148" x1="17.8025" y1="3.37109" x2="17.8025" y2="24.6304" gradientUnits="userSpaceOnUse">
<stop stop-color="#3F879B"/>
<stop offset="1" stop-color="#062C3C"/>
</linearGradient>
<linearGradient id="paint4_linear_350_6148" x1="17.8024" y1="2.59277" x2="17.8024" y2="25.4076" gradientUnits="userSpaceOnUse">
<stop stop-color="#3C4E56"/>
<stop offset="1" stop-color="#ADBED2"/>
</linearGradient>
<linearGradient id="paint5_linear_350_6148" x1="17.7858" y1="9.42504" x2="17.7858" y2="17.6004" gradientUnits="userSpaceOnUse">
<stop offset="0.08" stop-color="#C8D0E5"/>
<stop offset="0.23" stop-color="#FAFAFA"/>
<stop offset="0.39" stop-color="#C8D1E2"/>
<stop offset="0.59" stop-color="#566B7C"/>
<stop offset="1" stop-color="#A9B8CF"/>
</linearGradient>
<linearGradient id="paint6_linear_350_6148" x1="10.4018" y1="2.15825" x2="18.3105" y2="13.2281" gradientUnits="userSpaceOnUse">
<stop offset="0.5084" stop-color="white" stop-opacity="0"/>
<stop offset="1" stop-color="white"/>
</linearGradient>
</defs>
</svg>