<svg width="82" height="82" viewBox="0 0 82 82" fill="none" xmlns="http://www.w3.org/2000/svg">
<g id="arrow-down-bold">
<path id="Vector" d="M15.2181 33.1555L38.2806 10.093C38.6377 9.7347 39.062 9.45038 39.5292 9.25638C39.9964 9.06238 40.4973 8.96251 41.0032 8.96251C41.5091 8.96251 42.01 9.06238 42.4772 9.25638C42.9445 9.45038 43.3688 9.7347 43.7259 10.093L66.7884 33.1555C67.5105 33.8776 67.9161 34.857 67.9161 35.8782C67.9161 36.8994 67.5105 37.8788 66.7884 38.6009C66.0663 39.3229 65.0869 39.7286 64.0657 39.7286C63.0445 39.7286 62.0652 39.3229 61.3431 38.6009L44.8438 22.1016L44.8438 69.1875C44.8438 70.2069 44.4388 71.1846 43.718 71.9054C42.9971 72.6263 42.0194 73.0312 41 73.0312C39.9806 73.0312 39.0029 72.6263 38.2821 71.9054C37.5612 71.1846 37.1563 70.2069 37.1563 69.1875L37.1563 22.1016L20.657 38.6041C19.9349 39.3262 18.9555 39.7318 17.9343 39.7318C16.9131 39.7318 15.9338 39.3262 15.2117 38.6041C14.4896 37.882 14.0839 36.9026 14.0839 35.8814C14.0839 34.8602 14.4896 33.8808 15.2117 33.1587L15.2181 33.1555Z" fill="white"/>
</g>
</svg>
