<svg width="28" height="28" viewBox="0 0 28 28" fill="none" xmlns="http://www.w3.org/2000/svg">
<g id="arrows-down-up">
<path id="Vector" d="M18.6309 15.1309C18.7122 15.0496 18.8087 14.985 18.9149 14.941C19.0211 14.897 19.135 14.8743 19.25 14.8743C19.3649 14.8743 19.4788 14.897 19.585 14.941C19.6913 14.985 19.7878 15.0496 19.869 15.1309L23.369 18.6309C23.4504 18.7122 23.5149 18.8087 23.5589 18.9149C23.603 19.0212 23.6256 19.135 23.6256 19.25C23.6256 19.365 23.603 19.4789 23.5589 19.5851C23.5149 19.6913 23.4504 19.7878 23.369 19.8691L19.869 23.3691C19.7877 23.4504 19.6912 23.5148 19.585 23.5588C19.4788 23.6028 19.3649 23.6255 19.25 23.6255C19.135 23.6255 19.0211 23.6028 18.9149 23.5588C18.8087 23.5148 18.7122 23.4504 18.6309 23.3691C18.4667 23.2049 18.3745 22.9822 18.3745 22.75C18.3745 22.635 18.3971 22.5212 18.4411 22.415C18.4851 22.3087 18.5496 22.2122 18.6309 22.1309L20.6379 20.125H5.24996C5.01789 20.125 4.79533 20.0328 4.63124 19.8687C4.46714 19.7046 4.37496 19.4821 4.37496 19.25C4.37496 19.0179 4.46714 18.7954 4.63124 18.6313C4.79533 18.4672 5.01789 18.375 5.24996 18.375H20.6379L18.6309 16.3691C18.5495 16.2878 18.485 16.1913 18.441 16.0851C18.3969 15.9789 18.3743 15.865 18.3743 15.75C18.3743 15.635 18.3969 15.5212 18.441 15.4149C18.485 15.3087 18.5495 15.2122 18.6309 15.1309ZM8.13089 4.63094L4.63089 8.13094C4.54954 8.2122 4.485 8.30871 4.44097 8.41493C4.39693 8.52115 4.37427 8.63501 4.37427 8.75C4.37427 8.86499 4.39693 8.97885 4.44097 9.08508C4.485 9.1913 4.54954 9.2878 4.63089 9.36906L8.13089 12.8691C8.29508 13.0332 8.51776 13.1255 8.74996 13.1255C8.98215 13.1255 9.20483 13.0332 9.36902 12.8691C9.5332 12.7049 9.62544 12.4822 9.62544 12.25C9.62544 12.0178 9.5332 11.7951 9.36902 11.6309L7.36199 9.625L22.75 9.625C22.982 9.625 23.2046 9.53281 23.3687 9.36872C23.5328 9.20463 23.625 8.98207 23.625 8.75C23.625 8.51794 23.5328 8.29538 23.3687 8.13128C23.2046 7.96719 22.982 7.875 22.75 7.875L7.36199 7.875L9.36902 5.86906C9.5332 5.70488 9.62544 5.48219 9.62544 5.25C9.62544 5.01781 9.5332 4.79512 9.36902 4.63094C9.20483 4.46675 8.98215 4.37451 8.74996 4.37451C8.51776 4.37451 8.29508 4.46675 8.13089 4.63094Z" fill="#289A5B"/>
</g>
</svg>
