<svg width="82" height="82" viewBox="0 0 82 82" fill="none" xmlns="http://www.w3.org/2000/svg">
<g id="arrow-u-left-down-bold">
<path id="Vector" d="M67.9063 28.1875V56.375C67.9063 57.3944 67.5013 58.3721 66.7805 59.0929C66.0596 59.8138 65.082 60.2188 64.0625 60.2188C63.0431 60.2188 62.0654 59.8138 61.3446 59.0929C60.6238 58.3721 60.2188 57.3944 60.2188 56.375V28.1875C60.2188 24.4496 58.7339 20.8648 56.0908 18.2217C53.4477 15.5786 49.8629 14.0938 46.125 14.0938C42.3872 14.0938 38.8024 15.5786 36.1593 18.2217C33.5162 20.8648 32.0313 24.4496 32.0313 28.1875V62.4609L40.8431 53.6459C41.5652 52.9238 42.5446 52.5182 43.5658 52.5182C44.5869 52.5182 45.5663 52.9238 46.2884 53.6459C47.0105 54.368 47.4162 55.3474 47.4162 56.3686C47.4162 57.3898 47.0105 58.3692 46.2884 59.0912L30.9134 74.4662C30.5563 74.8246 30.132 75.1089 29.6648 75.3029C29.1976 75.4969 28.6966 75.5968 28.1908 75.5968C27.6849 75.5968 27.1839 75.4969 26.7167 75.3029C26.2495 75.1089 25.8252 74.8246 25.4681 74.4662L10.0931 59.0912C9.371 58.3692 8.96533 57.3898 8.96533 56.3686C8.96533 55.3474 9.371 54.368 10.0931 53.6459C10.8152 52.9238 11.7946 52.5182 12.8157 52.5182C13.8369 52.5182 14.8163 52.9238 15.5384 53.6459L24.3438 62.4609V28.1875C24.3438 22.4108 26.6386 16.8706 30.7234 12.7858C34.8082 8.70105 40.3483 6.40625 46.125 6.40625C51.9018 6.40625 57.4419 8.70105 61.5267 12.7858C65.6115 16.8706 67.9063 22.4108 67.9063 28.1875Z" fill="white"/>
</g>
</svg>
