<svg xmlns="http://www.w3.org/2000/svg" width="36" height="36" viewBox="0 0 36 36" fill="none">
<path d="M32.9597 29.5311C31.0316 26.1472 28.021 23.5106 24.4125 22.0456C26.207 20.6997 27.5325 18.8234 28.2013 16.6823C28.8702 14.5412 28.8484 12.2439 28.139 10.1159C27.4297 7.98791 26.0688 6.13703 24.2491 4.82545C22.4293 3.51388 20.2431 2.80811 18 2.80811C15.7569 2.80811 13.5706 3.51388 11.7509 4.82545C9.93117 6.13703 8.57025 7.98791 7.86092 10.1159C7.15158 12.2439 7.12978 14.5412 7.79861 16.6823C8.46743 18.8234 9.79298 20.6997 11.5875 22.0456C7.97892 23.5106 4.96831 26.1472 3.04028 29.5311C2.92082 29.7232 2.84119 29.9373 2.80614 30.1608C2.77109 30.3843 2.78134 30.6126 2.83627 30.832C2.89119 31.0514 2.98968 31.2576 3.12588 31.4382C3.26207 31.6189 3.4332 31.7703 3.62907 31.8834C3.82495 31.9966 4.04158 32.0692 4.26608 32.097C4.49059 32.1248 4.71839 32.1071 4.93593 32.0451C5.15348 31.9831 5.35634 31.8779 5.53245 31.736C5.70855 31.594 5.85432 31.418 5.96106 31.2186C8.50919 26.8142 13.0092 24.1873 18 24.1873C22.9908 24.1873 27.4908 26.8156 30.0389 31.2186C30.2702 31.5906 30.6372 31.858 31.0621 31.9644C31.4871 32.0708 31.9367 32.0077 32.3161 31.7886C32.6954 31.5694 32.9746 31.2113 33.0947 30.7901C33.2148 30.3688 33.1664 29.9173 32.9597 29.5311ZM10.6875 13.4998C10.6875 12.0535 11.1163 10.6398 11.9198 9.43722C12.7234 8.23468 13.8654 7.29742 15.2016 6.74396C16.5378 6.19049 18.0081 6.04568 19.4266 6.32783C20.8451 6.60999 22.148 7.30643 23.1707 8.32911C24.1934 9.35178 24.8898 10.6547 25.172 12.0732C25.4541 13.4917 25.3093 14.962 24.7558 16.2982C24.2024 17.6344 23.2651 18.7764 22.0626 19.5799C20.86 20.3835 19.4462 20.8123 18 20.8123C16.0613 20.8101 14.2026 20.039 12.8317 18.6681C11.4608 17.2972 10.6897 15.4385 10.6875 13.4998Z" fill="#797979"/>
</svg>