<svg width="36" height="36" viewBox="0 0 36 36" fill="none" xmlns="http://www.w3.org/2000/svg">
<g id="user-bold 1">
<path id="Vector" d="M32.9598 29.5313C31.0318 26.1475 28.0211 23.5108 24.4126 22.0459C26.2071 20.7 27.5326 18.8236 28.2015 16.6825C28.8703 14.5414 28.8485 12.2442 28.1391 10.1162C27.4298 7.98816 26.0689 6.13727 24.2492 4.8257C22.4295 3.51412 20.2432 2.80835 18.0001 2.80835C15.757 2.80835 13.5707 3.51412 11.751 4.8257C9.93129 6.13727 8.57038 7.98816 7.86104 10.1162C7.1517 12.2442 7.1299 14.5414 7.79873 16.6825C8.46755 18.8236 9.7931 20.7 11.5876 22.0459C7.97905 23.5108 4.96844 26.1475 3.04041 29.5313C2.92094 29.7234 2.84131 29.9376 2.80626 30.1611C2.77122 30.3845 2.78146 30.6128 2.83639 30.8322C2.89132 31.0517 2.9898 31.2579 3.126 31.4385C3.2622 31.6191 3.43332 31.7705 3.62919 31.8837C3.82507 31.9968 4.0417 32.0695 4.2662 32.0972C4.49071 32.125 4.71851 32.1074 4.93606 32.0453C5.15361 31.9833 5.35646 31.8782 5.53257 31.7362C5.70868 31.5942 5.85444 31.4183 5.96119 31.2188C8.50931 26.8144 13.0093 24.1876 18.0001 24.1876C22.9909 24.1876 27.4909 26.8159 30.039 31.2188C30.2703 31.5908 30.6373 31.8583 31.0622 31.9646C31.4872 32.071 31.9369 32.0079 32.3162 31.7888C32.6955 31.5696 32.9747 31.2116 33.0948 30.7903C33.2149 30.369 33.1665 29.9175 32.9598 29.5313ZM10.6876 13.5001C10.6876 12.0538 11.1165 10.64 11.92 9.43746C12.7235 8.23493 13.8655 7.29767 15.2017 6.7442C16.5379 6.19073 18.0082 6.04592 19.4267 6.32808C20.8452 6.61023 22.1481 7.30668 23.1708 8.32935C24.1935 9.35202 24.8899 10.655 25.1721 12.0735C25.4542 13.492 25.3094 14.9623 24.756 16.2984C24.2025 17.6346 23.2652 18.7767 22.0627 19.5802C20.8602 20.3837 19.4464 20.8126 18.0001 20.8126C16.0614 20.8103 14.2027 20.0392 12.8318 18.6683C11.461 17.2974 10.6898 15.4388 10.6876 13.5001Z" fill="#A0A3B4"/>
</g>
</svg>
